<?xml version="1.0" encoding="utf-8"?>
<!-- Generator: Adobe Illustrator 16.0.0, SVG Export Plug-In . SVG Version: 6.00 Build 0)  -->
<!DOCTYPE svg PUBLIC "-//W3C//DTD SVG 1.1//EN" "http://www.w3.org/Graphics/SVG/1.1/DTD/svg11.dtd">
<svg version="1.1" xmlns="http://www.w3.org/2000/svg" xmlns:xlink="http://www.w3.org/1999/xlink" x="0px" y="0px" width="339px"
	 height="342px" viewBox="0 0 339 342" enable-background="new 0 0 339 342" xml:space="preserve">
<g id="black">
	<path d="M339,14c0-7.732-6.268-14-14-14H14C6.268,0,0,6.268,0,14v314c0,7.732,6.268,14,14,14h311c7.732,0,14-6.268,14-14V14z"/>
</g>
<g id="yellow">
	<path fill="#F9D42B" d="M320,33c0-6.627-5.373-12-12-12H31c-6.627,0-12,5.373-12,12v277c0,6.627,5.373,12,12,12h277
		c6.627,0,12-5.373,12-12V33z"/>
</g>
<g id="Layer_6">
	<path d="M248,184c-1.681-7.459-8.373-12-15-12h-58c-6.627,0-12,5.373-12,12v58c0,6.627,5.373,12,12,12h74
		c3.411,0,7.047-2.058,9.297-5.156c2.12-2.921,2.975-6.801,2.319-9.67L248,184z"/>
</g>
<g id="Layer_5">
	<g>
		<path d="M98.434,73L29,234.5V301c0,6.63,5.37,12,12,12h259c6.63,0,12-5.37,12-12v-16L257.5,30H117l-13.34,31
			c10.137,0.013,28.34,0,28.34,0h106.15L281,260.14c0,4.9-3.27,8.86-8.36,8.86H165c-6,0-10.86-4.79-11-10.75V249
			c0-6.08-4.92-11-11-11H58.6c-2.72,0-3.29-1.94-3.2-4.73c0.06-1.779,0.48-3.93,1.55-6.31c1.24-2.75,34.73-76.71,56.58-124.96H213
			V73h-86"/>
		<path d="M109.045,61"/>
	</g>
</g>
</svg>
